# xmcd CD database file
#
# Track frame offsets:
#	150
#	44952
#	68454
#	93601
#	116818
#	149000
#	162592
#	200459
#	220096
#	249318
#	279305
#	301612
#
# Disc length: 4536 seconds
#
# Revision: 0
# Processed by: cddbd v1.5.2PL0 Copyright (c) Steve Scherf et al.
# Submitted via: CDex 1.70beta2
#
DISCID=b411b60c
DTITLE=Jackie McLean/Mal Waldron Original Quartet - Complete Recordings 
DYEAR=2007
DGENRE=Jazz
TTITLE0=Sentimental Journey 
TTITLE1=Why Was I Born ? 
TTITLE2=When I Fall In Love
TTITLE3=I Hear A Rhapsody 
TTITLE4=Embraceable You 
TTITLE5=I Never Knew 
TTITLE6=These Foolish Things
TTITLE7=Love Is Here To Stay
TTITLE8=I Cover The Waterfront
TTITLE9=What'S New ? 
TTITLE10=Old Folks
TTITLE11=Bean And The Boys
EXTD=YEAR: 2007
EXTT0=
EXTT1=
EXTT2=
EXTT3=
EXTT4=
EXTT5=
EXTT6=
EXTT7=
EXTT8=
EXTT9=
EXTT10=
EXTT11=
PLAYORDER=
